<?xml version="1.0" encoding="UTF-8" standalone="no"?>
<svg
   xmlns:dc="http://purl.org/dc/elements/1.1/"
   xmlns:cc="http://creativecommons.org/ns#"
   xmlns:rdf="http://www.w3.org/1999/02/22-rdf-syntax-ns#"
   xmlns:svg="http://www.w3.org/2000/svg"
   xmlns="http://www.w3.org/2000/svg"
   viewBox="0 0 692 984"
   height="984"
   width="692"
   xml:space="preserve"
   id="svg2"
   version="1.1"><metadata
     id="metadata8"><rdf:RDF><cc:Work
         rdf:about=""><dc:format>image/svg+xml</dc:format><dc:type
           rdf:resource="http://purl.org/dc/dcmitype/StillImage" /></cc:Work></rdf:RDF></metadata><defs
     id="defs6" /><g
     transform="matrix(1.3333333,0,0,-1.3333333,0,984)"
     id="g10"><g
       transform="scale(0.1)"
       id="g12"><path
         id="path14"
         style="fill:#231f20;fill-opacity:1;fill-rule:evenodd;stroke:none"
         d="M 2593.11,6490.4 H 787.516 L 0.664063,4968 C 157.387,4878.21 305.727,4781.61 435.246,4654.13 533.781,4557.12 550.883,4478.22 503.57,4350.43 470.617,4261.45 427.91,4178.39 378.352,4100.07 284.961,3952.5 202.664,3802.57 141.797,3645.73 84.3164,3497.59 41.5352,3336.39 19.5742,3155.82 -5.01172,2953.77 -4.15625,2759.96 25.5977,2574.36 51.293,2414.05 87.9453,2266.14 141.793,2130.51 c 78.078,-196.71 176.973,-363.02 291.836,-506.49 80.551,-100.63 166.59,-192.82 258.496,-273.88 151.777,-133.88 306.145,-248.06 462.535,-339 143.78,-83.613 286.63,-157.445 429.28,-218.257 166.34,-70.914 330.44,-129.715 493.51,-188.074 107.81,-38.586 199.67,-109.465 269.63,-198.032 96.4,-122.011 175.17,-257.363 246.03,-398.60903 70.85,141.24603 149.62,276.59803 246.02,398.60903 69.97,88.567 161.83,159.446 269.64,198.032 163.06,58.359 327.17,117.16 493.51,188.074 142.64,60.812 285.49,134.644 429.28,218.257 156.39,90.94 310.75,205.12 462.53,339 91.91,81.06 177.95,173.25 258.5,273.88 114.86,143.47 213.76,309.78 291.84,506.49 53.84,135.63 90.49,283.54 116.19,443.85 29.75,185.6 30.61,379.41 6.02,581.46 -21.96,180.57 -64.74,341.77 -122.22,489.91 -60.87,156.84 -143.17,306.77 -236.55,454.34 -49.57,78.32 -92.27,161.38 -125.22,250.36 -47.31,127.79 -30.21,206.69 68.32,303.7 129.52,127.48 277.86,224.08 434.58,313.87 L 4398.7,6490.4 H 2593.11" /><path
         id="path16"
         style="fill:#ffffff;fill-opacity:1;fill-rule:evenodd;stroke:none"
         d="M 940.789,6238.64 331.406,5059.61 C 430.77,4992.68 524.941,4919.11 611.859,4833.54 779.613,4668.41 821.422,4483.8 739.668,4263 701.023,4158.64 650.57,4059.44 591.09,3965.45 508.605,3835.11 432.395,3698.69 376.504,3554.65 322.691,3415.97 287.453,3273.07 269.488,3125.42 c -20.633,-169.61 -22.394,-342.21 4.7,-511.22 21.253,-132.58 51.964,-265.76 101.605,-390.8 63.359,-159.63 146.957,-307.86 254.371,-442.04 69.391,-86.68 145.176,-168.92 228.496,-242.41 130.824,-115.4 271.59,-222.39 422.55,-310.17 129.72,-75.43 263.36,-145.42 401.46,-204.3 157.5,-67.148 318.48,-124.972 479.61,-182.64 151.82,-54.332 282.73,-152.883 382.36,-278.988 16.62,-21.039 32.76,-42.407 48.47,-64.059 15.71,21.652 31.85,43.02 48.47,64.059 99.63,126.105 230.54,224.656 382.36,278.988 161.12,57.668 322.11,115.492 479.61,182.64 138.09,58.88 271.73,128.87 401.45,204.3 150.96,87.78 291.73,194.77 422.56,310.17 83.32,73.49 159.1,155.73 228.49,242.41 107.41,134.18 191.02,282.41 254.38,442.04 49.63,125.04 80.35,258.22 101.6,390.8 27.1,169.01 25.33,341.61 4.7,511.22 -17.96,147.65 -53.2,290.55 -107.02,429.23 -55.89,144.04 -132.1,280.46 -214.58,410.8 -59.49,93.99 -109.94,193.19 -148.58,297.55 -81.75,220.8 -39.95,405.41 127.81,570.54 86.91,85.57 181.09,159.14 280.45,226.07 L 4245.43,6238.64 H 940.789" /><path
         id="path18"
         style="fill:#231f20;fill-opacity:1;fill-rule:evenodd;stroke:none"
         d="M 1052.64,6054.92 567.238,5115.76 c 60.563,-47.08 118.633,-97.28 173.504,-151.3 218.926,-215.5 277.948,-476.98 171.207,-765.25 -43.07,-116.33 -99.312,-227.23 -165.621,-332.01 -76.094,-120.24 -146.98,-246.13 -198.551,-379.01 -48.168,-124.14 -79.843,-252.81 -95.922,-384.96 -18.539,-152.44 -20.617,-308.03 3.739,-459.94 19.117,-119.29 46.297,-239.61 90.949,-352.11 56.52,-142.37 131.223,-275.32 227.043,-395 62.789,-78.44 131.203,-152.95 206.602,-219.45 121.942,-107.55 252.672,-207.3 393.382,-289.13 123.24,-71.67 249.94,-138.19 381.15,-194.12 154.05,-65.68 311.85,-122.26 469.46,-178.67 139.06,-49.763 263.99,-129.767 368.93,-231.904 104.94,102.137 229.86,182.141 368.92,231.904 157.61,56.41 315.42,112.99 469.47,178.67 131.21,55.93 257.91,122.45 381.14,194.12 140.72,81.83 271.45,181.58 393.39,289.13 75.4,66.5 143.81,141.01 206.6,219.45 95.82,119.68 170.52,252.63 227.04,395 44.66,112.5 71.83,232.82 90.96,352.11 24.35,151.91 22.27,307.5 3.73,459.94 -16.08,132.15 -47.75,260.82 -95.92,384.96 -51.57,132.88 -122.46,258.77 -198.55,379.01 -66.31,104.78 -122.55,215.68 -165.62,332.01 -106.74,288.27 -47.72,549.75 171.21,765.25 54.86,54.02 112.93,104.22 173.5,151.3 l -485.4,939.16 H 1052.64" /><path
         id="path20"
         style="fill:#ffffff;fill-opacity:1;fill-rule:evenodd;stroke:none"
         d="M 1139.63,5912.03 747.246,5152.84 c 32.129,-27.87 63.418,-56.7 93.734,-86.54 62.485,-61.51 114.055,-126.92 154.629,-195.56 l 0.024,0.03 c 1039.027,397.91 2103.477,406.04 3194.947,0 l 0.02,-0.04 c 40.56,68.63 92.15,134.06 154.63,195.57 30.32,29.84 61.61,58.67 93.74,86.54 l -392.38,759.19 z m -82.62,-1169.01 c 68.94,-183.33 66.19,-384.8 -11.06,-593.42 -46.524,-125.65 -107.259,-245.63 -178.88,-358.81 -4.39,-6.94 -8.761,-13.89 -13.121,-20.88 575.321,258.71 1154.941,392.42 1739.161,393.06 584.21,-0.64 1163.84,-134.35 1739.16,-393.06 -4.36,6.99 -8.73,13.94 -13.13,20.88 -71.62,113.18 -132.35,233.16 -178.87,358.81 -77.25,208.62 -80,410.1 -11.07,593.42 l -0.02,0.01 c -1059.38,397.36 -2082.68,389.11 -3072.15,0 z M 732.711,3554.22 c -18.84,-38.59 -36.231,-77.81 -51.719,-117.72 -43.797,-112.87 -72.679,-230.37 -87.293,-350.52 -16.922,-139.12 -19.242,-281.42 2.981,-420.08 17.468,-108.97 41.875,-219.21 82.672,-322.01 51.195,-128.96 118.976,-249.98 205.781,-358.41 57.656,-72.02 120.337,-140.53 189.567,-201.59 115,-101.43 237.99,-195.59 370.7,-272.76 118.17,-68.72 239.55,-132.57 365.36,-186.21 151.45,-64.56 306.62,-120.12 461.57,-175.57 116.12,-41.56 224.05,-101.72 320.78,-177.123 96.72,75.403 204.66,135.563 320.77,177.123 154.96,55.45 310.12,111.01 461.58,175.57 125.81,53.64 247.18,117.49 365.35,186.21 132.72,77.17 255.7,171.33 370.7,272.76 69.24,61.06 131.92,129.57 189.57,201.59 86.81,108.43 154.59,229.45 205.78,358.41 40.8,102.8 65.21,213.04 82.68,322.01 22.22,138.66 19.9,280.96 2.98,420.08 -14.62,120.15 -43.5,237.65 -87.3,350.52 -15.48,39.91 -32.88,79.13 -51.72,117.72 -615.55,313.74 -1235.68,469.68 -1860.39,467.53 -624.71,2.15 -1244.84,-153.79 -1860.399,-467.53" /><path
         id="path22"
         style="fill:#231f20;fill-opacity:1;fill-rule:evenodd;stroke:none"
         d="m 2143.22,3396.17 v -258.34 c -26.11,-6.45 -51.94,-13.36 -77.49,-20.71 -207.7,-60.01 -371.19,-144.31 -489.78,-253.52 -118.6,-108.89 -178.23,-228.6 -178.23,-358.8 0,-161.35 90.45,-301.73 270.69,-421.11 129.51,-86.11 287.83,-149.04 474.8,-188.87 v -67.41 c 0,-170.56 -82.16,-255.11 -229.64,-255.11 h -86.47 v -60.67 h 316.12 87 219.22 316.11 v 60.67 h -86.47 c -147.47,0 -229.64,84.55 -229.64,255.11 v 24.66 c 76.85,-5.84 157.32,-8.78 241.41,-8.78 243.89,0 454.95,26.89 632.51,80.35 177.55,53.79 332.98,138.41 466.32,254.18 l -60.97,19.68 c -157.45,-107.58 -302.19,-179.39 -434.17,-215.47 -131.33,-36.08 -283.41,-54.12 -455.62,-54.12 -140.69,0 -270.52,11.64 -389.48,35.02 v 623.55 c 147.35,0 291.06,0 436.9,0 146.7,-6.44 232,-84.51 249.37,-301.06 h 62.92 v 301.06 35.26 97.3 301.07 h -62.92 c -19,-236.79 -119.18,-308.03 -292.09,-301.07 -131.29,5.29 -262.79,0 -394.18,0 v 389.01 c 103.46,20.04 214.67,30.06 333.2,30.06 210.38,0 389.96,-29.19 540.04,-87.57 150.08,-58.05 265.33,-153.81 346.39,-286.31 h 60.31 l -60.31,442.75 h -72.36 c -14.07,-30.83 -38.18,-54.77 -72.35,-72.15 -26.14,-12.13 -56.95,-18.37 -91.8,-18.37 -23.46,0 -62.99,7.22 -117.26,21.32 -186.92,46.24 -375.87,69.2 -567.5,69.2 -102.82,0 -202.25,-5.2 -298.36,-15.6 v 390.16 h 543.35 c 214,0 361.5,-77.95 432.06,-365.16 h 56.47 l -21.75,482.66 H 2449.44 2143.22 1827.65 v -58.75 c 166.83,-1.63 315.57,-1.13 315.57,-244.12 z m 0,-392.76 V 2062.5 c -73.83,37.32 -133.88,81.86 -180,133.68 -77.05,86.59 -115.24,188.91 -115.24,306.98 0,143 40.87,262.7 121.93,358.8 47.56,56.09 105.34,103.21 173.31,141.45" /><path
         id="path24"
         style="fill:#231f20;fill-opacity:1;fill-rule:evenodd;stroke:none"
         d="m 2581.32,4818.05 v -239.71 h 10.57 c 33.84,0 58.32,11.7 73.57,35.07 15.11,23.38 24.88,57.86 29.02,103.43 h 15.25 v -308.06 h -15.25 c -3.07,33.59 -9.77,61.11 -19.79,82.42 -10.16,21.45 -21.8,35.81 -35.18,43.2 -13.37,7.4 -32.76,11.1 -58.19,11.1 v -165.43 c 0,-32.4 1.21,-52.08 3.75,-59.33 2.41,-7.25 7.09,-13.17 13.91,-17.75 6.82,-4.6 17.79,-6.95 32.91,-6.95 h 31.82 c 49.64,0 89.49,12.72 119.45,38.01 29.97,25.31 51.5,63.93 64.48,116.01 h 14.58 l -23.95,-186.88 -457.29,-0.36 -169.39,-17.66 -196.25,248.58 -35.32,-3.68 14.03,-165.13 c 2.68,-31.5 6.14,-51.32 10.48,-59.04 4.22,-7.88 11.12,-13.69 20.47,-17.62 9.48,-3.91 26.46,-4.66 51.1,-2.09 l 1.27,-15.01 -275.21,-28.7 -1.27,15.01 c 24.89,2.6 41.59,6.86 49.96,12.78 8.51,5.94 14.17,13.21 17.01,21.53 2.97,8.46 3.04,28.53 0.36,60.02 l -32.47,382.37 c -2.69,31.64 -6.14,51.32 -10.48,59.03 -4.22,7.88 -11.13,13.69 -20.48,17.61 -9.47,3.92 -26.46,4.66 -51.08,2.1 l -1.28,15.01 250.04,26.08 c 65.08,6.78 112.98,6.88 144,0.17 30.99,-6.58 57.15,-22.11 78.48,-46.61 21.31,-24.36 33.41,-54.28 36.43,-89.75 3.66,-43.12 -7.65,-80.37 -33.79,-111.61 -16.75,-19.86 -41.18,-35.92 -73.3,-48.19 l 145.78,-184.79 c 19.21,-23.68 32.74,-38.31 40.44,-43.89 18.65,-12.4 35.27,-10.52 56.1,-11.06 15.37,0 27.81,3.11 37.18,9.17 6.82,4.14 12.04,11.09 15.65,21.01 2.81,6.95 4.28,25.3 4.28,55.04 v 387.96 c 0,26.79 -0.67,43.21 -2.01,49.43 -2.54,10.2 -7.36,18.05 -14.44,23.52 -9.9,8.14 -23.41,12.28 -40.66,12.28 h -17.53 v 15.1 h 444.61 v -174.01 h -15.24 c -7.5,42.61 -18.19,73.1 -31.84,91.59 -13.64,18.49 -32.9,32.11 -57.91,40.84 -14.59,5.18 -41.87,7.84 -82,7.84 z m 1181.98,-151.9 -53.62,-233.06 10.3,-2.48 c 32.98,-7.91 59.46,-2.27 79.55,16.89 19.95,19.2 37.19,50.44 51.42,93.77 l 14.87,-3.56 -68.91,-299.53 -14.86,3.57 c 4.51,33.37 4.14,61.7 -0.87,84.76 -5.11,23.24 -13.24,39.92 -24.62,50.24 -11.38,10.32 -29.46,18.46 -54.22,24.39 l -37.01,-160.84 c -7.24,-31.5 -10.47,-50.92 -9.62,-58.57 0.72,-7.6 3.96,-14.45 9.59,-20.51 5.62,-6.06 15.79,-10.92 30.52,-14.46 l 31.02,-7.44 c 48.37,-11.61 90.07,-8.56 124.93,9.03 34.86,17.59 64.48,50.1 88.78,97.71 l 14.21,-3.41 -65.13,-176.11 -447.57,107.41 3.38,14.68 17.08,-4.11 c 15,-3.59 27.81,-3.48 38.29,0.23 7.58,2.43 14.22,7.97 19.96,16.77 4.29,6.11 9.83,23.6 16.48,52.52 l 86.78,377.22 c 5.99,26.04 9.01,42.16 9.1,48.52 -0.2,10.52 -3.14,19.27 -8.82,26.26 -7.83,10.22 -20.07,17.41 -36.89,21.44 l -17.08,4.1 3.38,14.67 433.35,-103.99 -38.93,-169.19 -14.85,3.57 c 2.23,43.19 -1.38,75.33 -10.54,96.5 -9.16,21.18 -24.89,38.92 -47.32,53.25 -13.05,8.46 -39.05,17.43 -78.16,26.81 z m -313.51,117.38 -373.79,-516.42 100.46,-11.56 c 47.43,-5.45 81.05,-5.9 100.81,-1.47 32.02,6.74 60.79,22.79 86.33,48.16 25.51,25.22 45.21,60.63 59.22,106.39 l 15.14,-1.75 -45.73,-209.21 -483.29,55.58 374.41,517.25 -78.4,9.02 c -30.3,3.48 -50.48,4.77 -60.28,3.8 -18.63,-1.57 -36.62,-6.95 -53.83,-16.14 -17.23,-9.34 -32.21,-22.52 -44.82,-39.68 -12.62,-17.16 -23.52,-39.45 -32.74,-66.83 l -14.48,1.66 34,169.15 z m -1812.04,-27.4 34.71,-155.43 -13.33,-3.49 c -16.24,33.75 -31,57.16 -44.42,70.2 -13.45,13.18 -29.94,22.05 -49.38,26.77 -10.8,2.54 -28.35,0.71 -52.65,-5.64 l -39.18,-10.24 99.26,-444.61 c 6.63,-29.67 12.19,-47.82 16.72,-54.45 4.52,-6.63 11.72,-11.65 21.31,-14.96 9.74,-3.43 21.85,-3.18 36.48,0.64 l 16.98,4.44 3.3,-14.76 -270.37,-70.62 -3.3,14.76 17.11,4.47 c 14.89,3.89 26.23,10.07 34.05,18.39 5.62,5.76 9.33,13.92 10.95,24.61 1.22,7.52 -1.34,25.84 -7.84,54.94 l -99.26,444.61 -37.61,-9.82 c -34.74,-9.07 -58.12,-23.9 -70.27,-44.39 -16.97,-28.64 -23.55,-64.82 -19.95,-108.75 l -14.9,-3.89 -34.7,155.43 z m 317.97,20.04 21.68,-255.2 22.6,2.35 c 36.79,3.84 64.09,10.39 81.74,19.51 17.64,9.26 30.86,24.01 39.66,44.08 8.81,20.07 11.98,45.5 9.37,76.11 -3.77,44.44 -16.17,76.26 -37.18,95.46 -21.01,19.18 -52.76,26.56 -95.38,22.12 l -42.49,-4.43" /><path
         id="path26"
         style="fill:#fab500;fill-opacity:1;fill-rule:evenodd;stroke:none"
         d="m 2592.67,7378.9 83.37,-271.56 271.39,0.55 -219.87,-167.28 84.37,-271.23 -219.26,168.17 -219.26,-168.17 84.37,271.23 -219.87,167.28 271.39,-0.55 83.37,271.56" /></g></g></svg>